<?xml version="1.0" encoding="utf-8"?>
<!-- Generator: Adobe Illustrator 26.0.1, SVG Export Plug-In . SVG Version: 6.00 Build 0)  -->
<svg version="1.1" id="Grupo_1276" xmlns="http://www.w3.org/2000/svg" xmlns:xlink="http://www.w3.org/1999/xlink" x="0px" y="0px"
	 viewBox="0 0 214.4 60.8" style="enable-background:new 0 0 214.4 60.8;" xml:space="preserve">
<style type="text/css">
	.st0{enable-background:new    ;}
	.st1{fill:#FFFFFF;}
</style>
<g id="Grupo_1272" transform="translate(69.422)">
	<g id="Grupo_1270">
		<g class="st0">
			<path class="st1" d="M7.6,12.9v7.2h11.5v3.7H7.6V33H3.2V9.2h17.4v3.7H7.6z"/>
			<path class="st1" d="M24.4,7.8h4.2V33h-4.2V7.8z"/>
			<path class="st1" d="M47.3,16.6c1.4,1.3,2.1,3.2,2.1,5.8V33h-4v-2.2c-0.5,0.8-1.3,1.4-2.2,1.8c-1,0.4-2.1,0.6-3.5,0.6
				c-1.4,0-2.6-0.2-3.6-0.7s-1.8-1.1-2.4-1.9c-0.6-0.8-0.8-1.8-0.8-2.8c0-1.6,0.6-2.9,1.8-3.9c1.2-1,3.1-1.5,5.7-1.5h4.7v-0.3
				c0-1.3-0.4-2.2-1.1-2.9c-0.8-0.7-1.9-1-3.4-1c-1,0-2,0.2-3,0.5c-1,0.3-1.8,0.8-2.5,1.3l-1.7-3.1c1-0.7,2.1-1.3,3.4-1.7
				c1.3-0.4,2.8-0.6,4.3-0.6C43.9,14.6,45.9,15.3,47.3,16.6z M43.5,29.4c0.8-0.5,1.4-1.2,1.8-2.1v-2.1h-4.4c-2.4,0-3.7,0.8-3.7,2.4
				c0,0.8,0.3,1.4,0.9,1.8c0.6,0.5,1.5,0.7,2.6,0.7C41.7,30.1,42.6,29.9,43.5,29.4z"/>
			<path class="st1" d="M83.3,16.6c1.3,1.3,2,3.3,2,6V33H81v-9.9c0-1.6-0.4-2.8-1.1-3.6c-0.7-0.8-1.7-1.2-3-1.2
				c-1.4,0-2.6,0.5-3.4,1.4c-0.9,0.9-1.3,2.3-1.3,4V33H68v-9.9c0-1.6-0.4-2.8-1.1-3.6c-0.7-0.8-1.7-1.2-3-1.2
				c-1.5,0-2.6,0.5-3.5,1.4c-0.9,0.9-1.3,2.3-1.3,4V33h-4.2V14.8h4v2.3c0.7-0.8,1.5-1.4,2.5-1.9c1-0.4,2.2-0.6,3.4-0.6
				c1.4,0,2.6,0.3,3.6,0.8c1.1,0.5,1.9,1.3,2.5,2.3c0.7-1,1.7-1.7,2.9-2.2c1.2-0.5,2.5-0.8,3.9-0.8C80.1,14.6,81.9,15.3,83.3,16.6z"
				/>
			<path class="st1" d="M119.1,16.6c1.3,1.3,2,3.3,2,6V33h-4.2v-9.9c0-1.6-0.4-2.8-1.1-3.6c-0.7-0.8-1.7-1.2-3-1.2
				c-1.4,0-2.6,0.5-3.4,1.4c-0.9,0.9-1.3,2.3-1.3,4V33h-4.2v-9.9c0-1.6-0.4-2.8-1.1-3.6c-0.7-0.8-1.7-1.2-3-1.2
				c-1.5,0-2.6,0.5-3.5,1.4c-0.9,0.9-1.3,2.3-1.3,4V33h-4.2V14.8h4v2.3c0.7-0.8,1.5-1.4,2.5-1.9c1-0.4,2.2-0.6,3.4-0.6
				c1.4,0,2.6,0.3,3.6,0.8c1.1,0.5,1.9,1.3,2.5,2.3c0.7-1,1.7-1.7,2.9-2.2c1.2-0.5,2.5-0.8,3.9-0.8
				C115.9,14.6,117.7,15.3,119.1,16.6z"/>
			<path class="st1" d="M139.6,16.6c1.4,1.3,2.1,3.2,2.1,5.8V33h-4v-2.2c-0.5,0.8-1.3,1.4-2.2,1.8c-1,0.4-2.1,0.6-3.5,0.6
				c-1.4,0-2.6-0.2-3.6-0.7c-1-0.5-1.8-1.1-2.4-1.9c-0.6-0.8-0.8-1.8-0.8-2.8c0-1.6,0.6-2.9,1.8-3.9c1.2-1,3.1-1.5,5.7-1.5h4.7v-0.3
				c0-1.3-0.4-2.2-1.1-2.9c-0.8-0.7-1.9-1-3.4-1c-1,0-2,0.2-3,0.5c-1,0.3-1.8,0.8-2.5,1.3l-1.7-3.1c1-0.7,2.1-1.3,3.4-1.7
				c1.3-0.4,2.8-0.6,4.2-0.6C136.1,14.6,138.2,15.3,139.6,16.6z M135.7,29.4c0.8-0.5,1.4-1.2,1.8-2.1v-2.1h-4.4
				c-2.4,0-3.7,0.8-3.7,2.4c0,0.8,0.3,1.4,0.9,1.8c0.6,0.5,1.5,0.7,2.5,0.7C133.9,30.1,134.9,29.9,135.7,29.4z"/>
		</g>
	</g>
	<g id="Grupo_1271" transform="translate(2.097 38.074)">
		<g class="st0">
			<path class="st1" d="M5.5,9L4.1,7C4,7,3.9,7,3.8,7H2.2v2H0.9V2h2.9C4.4,2,5,2.1,5.4,2.3c0.5,0.2,0.8,0.5,1,0.9
				C6.7,3.5,6.8,4,6.8,4.5c0,0.5-0.1,1-0.4,1.4C6.2,6.2,5.8,6.5,5.3,6.7L6.9,9H5.5z M5,3.5C4.8,3.2,4.3,3.1,3.8,3.1H2.2v2.8h1.5
				c0.6,0,1-0.1,1.3-0.4c0.3-0.2,0.4-0.6,0.4-1C5.5,4,5.3,3.7,5,3.5z"/>
			<path class="st1" d="M14.3,7.9V9H9V2h5.1v1.1h-3.8v1.8h3.4V6h-3.4v1.9H14.3z"/>
			<path class="st1" d="M21,7.4h-3.5L16.8,9h-1.3l3.1-7h1.3L23,9h-1.4L21,7.4z M20.6,6.4l-1.3-3.1l-1.3,3.1H20.6z"/>
			<path class="st1" d="M24.7,2H26v5.9h3.7V9h-5V2z"/>
			<path class="st1" d="M40.2,7.9V9h-5.2V2H40v1.1h-3.8v1.8h3.4V6h-3.4v1.9H40.2z"/>
			<path class="st1" d="M43,8.9c-0.5-0.2-0.9-0.4-1.2-0.6l0.5-1c0.3,0.2,0.6,0.4,1.1,0.6C43.7,7.9,44.1,8,44.6,8
				c0.5,0,0.9-0.1,1.2-0.2c0.3-0.2,0.4-0.4,0.4-0.7c0-0.2-0.1-0.4-0.2-0.5c-0.1-0.1-0.3-0.2-0.5-0.3c-0.2-0.1-0.5-0.2-0.9-0.2
				c-0.5-0.1-1-0.3-1.3-0.4c-0.3-0.1-0.6-0.3-0.9-0.6c-0.2-0.3-0.4-0.6-0.4-1.1c0-0.4,0.1-0.7,0.3-1.1c0.2-0.3,0.5-0.6,1-0.8
				c0.4-0.2,0.9-0.3,1.6-0.3c0.4,0,0.8,0.1,1.3,0.2c0.4,0.1,0.8,0.3,1.1,0.5l-0.4,1c-0.3-0.2-0.6-0.3-1-0.4C45.4,3,45.1,3,44.8,3
				c-0.5,0-0.9,0.1-1.1,0.3c-0.2,0.2-0.4,0.4-0.4,0.7c0,0.2,0.1,0.4,0.2,0.5s0.3,0.2,0.5,0.3s0.5,0.2,0.9,0.2
				c0.5,0.1,0.9,0.2,1.3,0.4c0.3,0.1,0.6,0.3,0.9,0.6c0.2,0.3,0.4,0.6,0.4,1.1c0,0.4-0.1,0.7-0.3,1.1c-0.2,0.3-0.5,0.6-1,0.8
				s-0.9,0.3-1.6,0.3C44,9.1,43.5,9,43,8.9z"/>
			<path class="st1" d="M50.7,3.1h-2.3V2h5.9v1.1H52V9h-1.3V3.1z"/>
			<path class="st1" d="M60.3,7.4h-3.5L56.1,9h-1.3l3.2-7h1.3l3.2,7H61L60.3,7.4z M59.9,6.4l-1.3-3.1l-1.3,3.1H59.9z"/>
			<path class="st1" d="M65.1,3.1h-2.3V2h5.9v1.1h-2.3V9h-1.3V3.1z"/>
			<path class="st1" d="M75.7,7.9V9h-5.2V2h5.1v1.1h-3.8v1.8h3.4V6h-3.4v1.9H75.7z"/>
			<path class="st1" d="M85.8,2.3c0.5,0.2,0.8,0.5,1,0.9s0.4,0.8,0.4,1.3c0,0.5-0.1,0.9-0.4,1.3c-0.2,0.4-0.6,0.7-1,0.9
				c-0.5,0.2-1,0.3-1.6,0.3h-1.6v2h-1.3V2h2.9C84.9,2,85.4,2.1,85.8,2.3z M85.5,5.5c0.3-0.2,0.4-0.6,0.4-1c0-0.4-0.1-0.8-0.4-1
				c-0.3-0.2-0.7-0.4-1.3-0.4h-1.5v2.8h1.5C84.8,5.9,85.2,5.8,85.5,5.5z"/>
			<path class="st1" d="M93.5,7.4H90L89.3,9h-1.3l3.2-7h1.3l3.2,7h-1.4L93.5,7.4z M93,6.4l-1.3-3.1l-1.3,3.1H93z"/>
			<path class="st1" d="M101.7,9l-1.4-2c-0.1,0-0.1,0-0.3,0h-1.6v2h-1.3V2h2.9c0.6,0,1.1,0.1,1.6,0.3s0.8,0.5,1,0.9S103,4,103,4.5
				c0,0.5-0.1,1-0.4,1.4c-0.3,0.4-0.6,0.7-1.1,0.9l1.6,2.3H101.7z M101.3,3.5c-0.3-0.2-0.7-0.4-1.3-0.4h-1.5v2.8h1.5
				c0.6,0,1-0.1,1.3-0.4c0.3-0.2,0.4-0.6,0.4-1C101.7,4,101.6,3.7,101.3,3.5z"/>
			<path class="st1" d="M106.5,3.1h-2.3V2h5.9v1.1h-2.3V9h-1.3V3.1z"/>
			<path class="st1" d="M118.1,2v7H117l-3.9-4.7V9h-1.3V2h1.1l3.9,4.7V2H118.1z"/>
			<path class="st1" d="M126,7.9V9h-5.2V2h5.1v1.1H122v1.8h3.4V6H122v1.9H126z"/>
			<path class="st1" d="M132.8,9l-1.4-2c-0.1,0-0.2,0-0.3,0h-1.6v2h-1.3V2h2.9c0.6,0,1.1,0.1,1.6,0.3c0.5,0.2,0.8,0.5,1,0.9
				c0.2,0.4,0.4,0.8,0.4,1.3c0,0.5-0.1,1-0.4,1.4c-0.3,0.4-0.6,0.7-1.1,0.9l1.6,2.3H132.8z M132.3,3.5c-0.3-0.2-0.7-0.4-1.3-0.4
				h-1.5v2.8h1.5c0.6,0,1-0.1,1.3-0.4c0.3-0.2,0.4-0.6,0.4-1C132.7,4,132.6,3.7,132.3,3.5z"/>
			<path class="st1" d="M136.9,8.9c-0.5-0.2-0.9-0.4-1.2-0.6l0.5-1c0.3,0.2,0.6,0.4,1.1,0.6c0.4,0.1,0.8,0.2,1.3,0.2
				c0.5,0,0.9-0.1,1.2-0.2c0.3-0.2,0.4-0.4,0.4-0.7c0-0.2-0.1-0.4-0.2-0.5c-0.1-0.1-0.3-0.2-0.5-0.3c-0.2-0.1-0.5-0.2-0.9-0.2
				c-0.5-0.1-1-0.3-1.3-0.4c-0.3-0.1-0.6-0.3-0.9-0.6c-0.2-0.3-0.4-0.6-0.4-1.1c0-0.4,0.1-0.7,0.3-1.1c0.2-0.3,0.5-0.6,1-0.8
				c0.4-0.2,0.9-0.3,1.6-0.3c0.4,0,0.8,0.1,1.3,0.2c0.4,0.1,0.8,0.3,1.1,0.5l-0.4,1c-0.3-0.2-0.6-0.3-1-0.4c-0.3-0.1-0.7-0.1-1-0.1
				c-0.5,0-0.9,0.1-1.1,0.3c-0.2,0.2-0.4,0.4-0.4,0.7c0,0.2,0.1,0.4,0.2,0.5s0.3,0.2,0.5,0.3s0.5,0.2,0.9,0.2
				c0.5,0.1,0.9,0.2,1.3,0.4c0.3,0.1,0.6,0.3,0.9,0.6c0.2,0.3,0.4,0.6,0.4,1.1c0,0.4-0.1,0.7-0.3,1.1c-0.2,0.3-0.5,0.6-1,0.8
				s-0.9,0.3-1.6,0.3C137.9,9.1,137.4,9,136.9,8.9z"/>
		</g>
	</g>
</g>
<g id="Grupo_1275" transform="translate(0 2.588)">
	<path id="Trazado_1206" class="st1" d="M29.1,0C13,0,0,13,0,29.1s13,29.1,29.1,29.1s29.1-13,29.1-29.1S45.2,0,29.1,0L29.1,0z
		 M29.1,55.9c-14.8,0-26.8-12-26.8-26.8s12-26.8,26.8-26.8s26.8,12,26.8,26.8C55.9,43.9,43.9,55.9,29.1,55.9
		C29.1,55.9,29.1,55.9,29.1,55.9L29.1,55.9z"/>
	<g id="Grupo_1274" transform="translate(15.247 5.865)">
		<path id="Trazado_1207" class="st1" d="M27.2,0c0,0-2.6,3.6-5.9,4.8C16.4,6.7,11.4,7.3,9,8.9c-8.1,5.2-8.6,14.8-8.4,18.7
			c0,0,0.5-4.6,5.6-8.7c4.1-3.3,10.4-3.6,12.3-4.6C23.2,12,26.1,8.6,27.2,0z"/>
		<path id="Trazado_1208" class="st1" d="M25.8,11.6c-1.4,1.9-3.3,3.4-5.4,4.4c-4.4,1.7-10,2.7-12.2,4.2C0.9,24.9,1.6,33,1.8,36.6
			c0,0,0.3-3.2,4.8-6.9c3.7-3,8.3-2.8,10-3.6C20.9,23.9,24.8,19.4,25.8,11.6z"/>
		<g id="Grupo_1273" transform="translate(0 30.638)">
			<path id="Trazado_1209" class="st1" d="M2.2,8.4c0,0.6,0,1.2-0.1,1.8c-0.3,1.9-1,3.8-2.2,5.4C6,12.7,8.7,9,9.3,4.4
				C9.6,3,9.5,1.4,9,0C8.3,0.3,7.7,0.8,7.1,1.2C4.7,3,3,5.5,2.2,8.4z"/>
		</g>
	</g>
</g>
</svg>
